<svg width="128" height="126" viewBox="0 0 128 126" fill="none" xmlns="http://www.w3.org/2000/svg">
<path fill-rule="evenodd" clip-rule="evenodd" d="M63.6292 0C98.7709 0 127.258 28.1092 127.258 62.7836C127.258 97.458 98.7709 125.567 63.6292 125.567C28.4878 125.567 0 97.458 0 62.7836C0 28.1092 28.4878 0 63.6292 0ZM61.3292 4.69805C54.0707 5.70605 47.1587 11.4614 41.7929 21.0871C40.2365 23.8792 38.8322 26.9638 37.6084 30.2946C44.9043 28.4853 52.9186 27.4189 61.3292 27.254V4.69805ZM32.2307 31.8025C33.7526 27.0898 35.6141 22.754 37.7627 18.8999C40.4225 14.1281 43.5792 10.0076 47.1355 6.84269C27.7958 12.3848 12.5516 27.4263 6.93486 46.5092C10.1423 42.9998 14.3185 39.8852 19.1545 37.2608C23.0605 35.1409 27.4547 33.3038 32.2307 31.8025ZM30.7024 37.1084C28.8692 44.3074 27.7883 52.2153 27.6211 60.5142H4.76134C5.78292 53.3515 11.6158 46.5316 21.3712 41.2377C24.2009 39.7018 27.3271 38.3161 30.7024 37.1084ZM32.222 60.5142C32.4119 51.4574 33.733 42.9546 35.9193 35.442C43.5333 33.2848 52.1511 31.9808 61.3292 31.7933V41.5968C57.905 50.2461 50.9212 57.137 42.1547 60.5142H32.222ZM27.6211 65.053H4.76134C5.78292 72.2156 11.6158 79.0353 21.3712 84.3295C24.2009 85.8653 27.3271 87.2508 30.7024 88.4587C28.8692 81.2598 27.7883 73.3519 27.6211 65.053ZM35.9193 90.1254C33.733 82.6126 32.4119 74.1097 32.222 65.053H42.1547C50.9212 68.4302 57.9056 75.3211 61.3292 83.9707V93.7741C52.1511 93.5866 43.5333 92.2821 35.9193 90.1254ZM32.2307 93.7649C27.4547 92.2634 23.0605 90.4262 19.1545 88.3066C14.3185 85.6823 10.1423 82.5671 6.93486 79.0579C12.5516 98.1408 27.7958 113.182 47.1355 118.724C43.5792 115.559 40.4225 111.439 37.7627 106.667C35.6141 102.813 33.7526 98.4776 32.2307 93.7649ZM61.3292 120.869C54.0707 119.861 47.1587 114.106 41.7929 104.48C40.2365 101.688 38.8322 98.6032 37.6084 95.2726C44.9043 97.0818 52.9186 98.148 61.3292 98.3132V120.869ZM80.1229 118.724C83.6793 115.559 86.8365 111.439 89.496 106.667C91.6443 102.813 93.5061 98.4776 95.028 93.7649C99.8041 92.2634 104.198 90.4262 108.104 88.3066C112.94 85.6823 117.117 82.5671 120.324 79.0579C114.707 98.1408 99.4627 113.182 80.1229 118.724ZM89.6503 95.2726C88.426 98.6032 87.0219 101.688 85.4655 104.48C80.1006 114.106 73.1883 119.861 65.9293 120.869V98.3132C74.3401 98.148 82.3545 97.0818 89.6503 95.2726ZM96.5561 88.4587C99.9312 87.2508 103.058 85.8653 105.888 84.3295C115.643 79.0353 121.476 72.2156 122.497 65.053H99.6377C99.4701 73.3519 98.3896 81.2598 96.5561 88.4587ZM95.037 65.053C94.8474 74.1097 93.5251 82.6126 91.3394 90.1254C83.7254 92.2821 75.1079 93.5866 65.9293 93.7741V83.9779C69.352 75.325 76.3376 68.4313 85.1066 65.053H95.037ZM99.6377 60.5142H122.497C121.476 53.3515 115.643 46.5316 105.888 41.2377C103.058 39.7018 99.9312 38.3161 96.5561 37.1084C98.3896 44.3074 99.4701 52.2153 99.6377 60.5142ZM91.3394 35.442C93.5251 42.9546 94.8474 51.4574 95.037 60.5142H85.1066C76.3376 57.1359 69.352 50.2422 65.9293 41.5895V31.7933C75.1079 31.9808 83.7254 33.2848 91.3394 35.442ZM95.028 31.8025C99.8041 33.3038 104.198 35.1409 108.104 37.2608C112.94 39.8852 117.117 42.9998 120.324 46.5092C114.707 27.4263 99.4627 12.3848 80.1229 6.84269C83.6793 10.0076 86.8365 14.1281 89.496 18.8999C91.6443 22.754 93.5061 27.0898 95.028 31.8025ZM65.9293 4.69805C73.1883 5.70605 80.1006 11.4614 85.4655 21.0871C87.0219 23.8792 88.426 26.9638 89.6503 30.2946C82.3545 28.4853 74.3401 27.4189 65.9293 27.254V4.69805Z" fill="#0B3B2D"/>
</svg>
